<?xml version="1.0" encoding="UTF-8" standalone="no"?>
<svg
        xmlns="http://www.w3.org/2000/svg"
        viewBox="0 0 2872 2743"
        version="1.1"
        id="frame-9536">
  <style>
    #frame-9536 {
    -webkit-transform: translate(0%, 0%);
    -ms-transform: translate(0%, 0%);
    transform: translate(0%, 0%);
    }
    #frame-9536.portrait {
    -webkit-transform: rotate(90deg) scale(-1, 1) translate(-0%, -0%);
    -ms-transform: rotate(90deg) scale(-1, 1) translate(-0%, -0%);
    transform: rotate(90deg) scale(-1, 1) translate(-0%, -0%);
    }
  </style>
  <g stroke="none" stroke-width="1" fill="none" fill-rule="evenodd">
    <g id="Group" fill-rule="nonzero">
      <g id="Effects" transform="translate(0.000000, 0.000000)">
        <path
                d="m 2712,243 0,2457 -43,0 0,-2457 z"
                style="fill:#111111"
                id="innerFrame_3"/>
        <path
                d="m 2668.7697,199 0,44 -0.2303,0 0,-0.006 -2624.7697,0 0.229979,0 -0.229979,0 0,-44 z"
                style="fill:#111111;"
                id="innerFrame_2"/>
        <path
                d="M 43,243 43,2700 0,2700 0,243 Z"
                style="fill:#000000"
                id="innerFrame_1"/>
        <path
                d="m 2668.7707,2700 0,43 L 44,2743 l 0,-43 0.22928,0 2.3e-5,0.01 2624.770697,0 0,-0.01 z"
                style="fill:#111111"
                id="innerFrame_0"/>
        <path
                d="m2669 2700h43v43h-43z"
                style="fill-rule:evenodd;fill:#111111"
                id="corner_3"/>
        <path
                d="m2669 200h43v43h-43z"
                style="fill-rule:evenodd;fill:#111111"
                id="corner_2"/>
        <path
                d="m 0,200 43,0 0,43 -43,0 z"
                style="fill:#000000;fill-rule:evenodd"
                id="corner_1"/>
        <path
                d="m 0,2700 43,0 0,43 -43,0 z"
                style="fill:#000000;fill-rule:evenodd"
                id="corner_0"/>
        <path
                d="m 2872,199 -160,1.33281 0,2341.66719 160,0 z"
                style="fill:#000000;"
                id="depthFrame_1"/>
        <path
                d="m 160,0 0,199 2552,0 0,-199 z"
                style="fill:#4a4a49"
                id="depthFrame_0"/>
        <path
                d="m2872 2542h-160v201h0.011z"
                style="fill:#000000"
                id="tri_3"/>
        <path
                d="m2872 199h-160l160-199z"
                style="fill:#000000"
                id="tri_2"/>
        <path
                d="m 2712,0 0,199 160,-199 z"
                style="fill:#4a4a49"
                id="tri_1"/>
        <path
                d="m 0,199 160,0 0,-199 z"
                style="fill:#4a4a49"
                id="tri_0"/>
      </g>
    </g>
  </g>
</svg>
