<svg id="frame-9536" viewBox="0 0 1854 2421" version="1.1" xmlns="http://www.w3.org/2000/svg" xmlns:xlink="http://www.w3.org/1999/xlink">
    <style>
        #frame-9536 {
        -webkit-transform: translate(0%, 0%);
        -ms-transform: translate(0%, 0%);
        transform: translate(0%, 0%);
        }
        #frame-9536.portrait {
        -webkit-transform: rotate(90deg) scale(-1, 1) translate(-0%, -0%);
        -ms-transform: rotate(90deg) scale(-1, 1) translate(-0%, -0%);
        transform: rotate(90deg) scale(-1, 1) translate(-0%, -0%);
        }
    </style>
    <!-- Generator: Sketch 61 (89581) - https://sketch.com -->
    <title>Box Frame Studio Masks-cut-edited-simplified</title>
    <desc>Created with Sketch.</desc>
    <g id="Page-1" stroke="none" stroke-width="1" fill="none" fill-rule="evenodd">
        <g id="Box-Frame-Studio-Masks-cut-edited-simplified">
            <polygon id="innerFrame_3" fill="#111111" fill-rule="nonzero" points="1790 109 1790 2376 1745 2376 1745 109"></polygon>
            <polygon id="innerFrame_2" fill="#111111" fill-rule="nonzero" points="1745 64.0061355 1745 109 1744.85087 109 1744.85087 108.993864 45 108.993864 45.1489393 108.993864 45 108.993864 45 64"></polygon>
            <polygon id="innerFrame_1" fill="#000000" fill-rule="nonzero" points="46 109 46 2376 1 2376 1 109"></polygon>
            <polygon id="innerFrame_0" fill="#111111" fill-rule="nonzero" points="1744.8515 2376 1744.8515 2421 45 2421 45 2376 45.1484861 2376 45.148501 2376.01047 1745 2376.01047 1745 2376"></polygon>
            <polygon id="corner_3" fill="#111111" points="1745 2376 1790 2376 1790 2421 1745 2421"></polygon>
            <polygon id="corner_2" fill="#111111" points="1745 64 1790 64 1790 109 1745 109"></polygon>
            <polygon id="corner_1" fill="#000000" points="1 64 46 64 46 109 1 109"></polygon>
            <polygon id="corner_0" fill="#000000" points="1 2376 46 2376 46 2421 1 2421"></polygon>
            <polygon id="depthFrame_1" fill="#000000" fill-rule="nonzero" points="1854 64 1790 65.3043682 1790 2357 1854 2357"></polygon>
            <polygon id="depthFrame_0" fill="#4A4A49" fill-rule="nonzero" points="64 1 64 65 1790 65 1790 1"></polygon>
            <polygon id="tri_3" fill="#000000" fill-rule="nonzero" points="1854 2357 1790 2357 1790 2421 1790.0044 2421"></polygon>
            <polygon id="tri_2" fill="#000000" fill-rule="nonzero" points="1854 64 1790 64 1854 0"></polygon>
            <polygon id="tri_1" fill="#4A4A49" fill-rule="nonzero" points="1790 1 1790 65 1854 1"></polygon>
            <polygon id="tri_0" fill="#4A4A49" fill-rule="nonzero" points="0 65.2 64 65.2 64 1.2"></polygon>
        </g>
    </g>
</svg>
