
<svg id="frame-9536" viewBox="0 0 3933 2988" version="1.1" xmlns="http://www.w3.org/2000/svg" xmlns:xlink="http://www.w3.org/1999/xlink">
    <style>
        #frame-9536 {
        -webkit-transform: translate(0%, 0%);
        -ms-transform: translate(0%, 0%);
        transform: translate(0%, 0%);
        }
        #frame-9536.portrait {
        -webkit-transform: rotate(90deg) scale(-1, 1) translate(-0%, -0%);
        -ms-transform: rotate(90deg) scale(-1, 1) translate(-0%, -0%);
        transform: rotate(90deg) scale(-1, 1) translate(-0%, -0%);
        }
    </style>
    <g id="Page-1" stroke="none" stroke-width="1" fill="none" fill-rule="evenodd">
        <g id="Box-Frame-Studio-Masks-cut-edited-simplified">
            <polygon id="innerFrame_3" fill="#111111" fill-rule="nonzero" points="3869 109 3869 2943 3824 2943 3824 109"></polygon>
            <polygon id="innerFrame_2" fill="#111111" fill-rule="nonzero" points="3824 64.0061355 3824 109 3823.66846 109 3823.66846 108.993864 45 108.993864 45.3310821 108.993864 45 108.993864 45 64"></polygon>
            <polygon id="innerFrame_1" fill="#000000" fill-rule="nonzero" points="45 109 45 2943 0 2943 0 109"></polygon>
            <polygon id="innerFrame_0" fill="#111111" fill-rule="nonzero" points="3823.6699 2943 3823.6699 2988 45 2988 45 2943 45.3300759 2943 45.330109 2943.01047 3824 2943.01047 3824 2943"></polygon>
            <polygon id="corner_3" fill="#111111" points="3824 2943 3869 2943 3869 2988 3824 2988"></polygon>
            <polygon id="corner_2" fill="#111111" points="3824 64 3869 64 3869 109 3824 109"></polygon>
            <polygon id="corner_1" fill="#000000" points="0 64 45 64 45 109 0 109"></polygon>
            <polygon id="corner_0" fill="#000000" points="0 2943 45 2943 45 2988 0 2988"></polygon>
            <polygon id="depthFrame_1" fill="#000000" fill-rule="nonzero" points="3933 64 3869 65.6269042 3869 2924 3933 2924"></polygon>
            <polygon id="depthFrame_0" fill="#4A4A49" fill-rule="nonzero" points="64 0 64 64 3869 64 3869 0"></polygon>
            <polygon id="tri_3" fill="#000000" fill-rule="nonzero" points="3933 2924 3869 2924 3869 2988 3869.0044 2988"></polygon>
            <polygon id="tri_2" fill="#000000" fill-rule="nonzero" points="3933 64 3869 64 3933 0"></polygon>
            <polygon id="tri_1" fill="#4A4A49" fill-rule="nonzero" points="3869 0 3869 64 3933 0"></polygon>
            <polygon id="tri_0" fill="#4A4A49" fill-rule="nonzero" points="0 64 64 64 64 0"></polygon>
        </g>
    </g>
</svg>