
<svg id="frame-9536" viewBox="0 0 3177 2421" version="1.1" xmlns="http://www.w3.org/2000/svg" xmlns:xlink="http://www.w3.org/1999/xlink">
    <style>
        #frame-9536 {
        -webkit-transform: translate(0%, 0%);
        -ms-transform: translate(0%, 0%);
        transform: translate(0%, 0%);
        }
        #frame-9536.portrait {
        -webkit-transform: rotate(90deg) scale(-1, 1) translate(-0%, -0%);
        -ms-transform: rotate(90deg) scale(-1, 1) translate(-0%, -0%);
        transform: rotate(90deg) scale(-1, 1) translate(-0%, -0%);
        }
    </style>
    <g id="Page-1" stroke="none" stroke-width="1" fill="none" fill-rule="evenodd">
        <g id="Box-Frame-Studio-Masks-cut-edited-simplified">
            <polygon id="innerFrame_3" fill="#111111" fill-rule="nonzero" points="3113 109 3113 2376 3068 2376 3068 109"></polygon>
            <polygon id="innerFrame_2" fill="#111111" fill-rule="nonzero" points="3068 64.0061355 3068 109 3067.73478 109 3067.73478 108.993864 45 108.993864 45.2648482 108.993864 45 108.993864 45 64"></polygon>
            <polygon id="innerFrame_1" fill="#000000" fill-rule="nonzero" points="45 109 45 2376 0 2376 0 109"></polygon>
            <polygon id="innerFrame_0" fill="#111111" fill-rule="nonzero" points="3067.73593 2376 3067.73593 2421 45 2421 45 2376 45.2640432 2376 45.2640697 2376.01047 3068 2376.01047 3068 2376"></polygon>
            <polygon id="corner_3" fill="#111111" points="3068 2376 3113 2376 3113 2421 3068 2421"></polygon>
            <polygon id="corner_2" fill="#111111" points="3068 64 3113 64 3113 109 3068 109"></polygon>
            <polygon id="corner_1" fill="#000000" points="0 64 45 64 45 109 0 109"></polygon>
            <polygon id="corner_0" fill="#000000" points="0 2376 45 2376 45 2421 0 2421"></polygon>
            <polygon id="depthFrame_1" fill="#000000" fill-rule="nonzero" points="3177 64 3113 65.3043676 3113 2357 3177 2357"></polygon>
            <polygon id="depthFrame_0" fill="#4A4A49" fill-rule="nonzero" points="64 0 64 64 3113 64 3113 0"></polygon>
            <polygon id="tri_3" fill="#000000" fill-rule="nonzero" points="3177 2357 3113 2357 3113 2421 3113.0044 2421"></polygon>
            <polygon id="tri_2" fill="#000000" fill-rule="nonzero" points="3177 64 3113 64 3177 0"></polygon>
            <polygon id="tri_1" fill="#4A4A49" fill-rule="nonzero" points="3113 0 3113 64 3177 0"></polygon>
            <polygon id="tri_0" fill="#4A4A49" fill-rule="nonzero" points="0 64 64 64 64 0"></polygon>
        </g>
    </g>
</svg>