
<svg id="frame-9536" viewBox="0 0 2043 2043" version="1.1" xmlns="http://www.w3.org/2000/svg" xmlns:xlink="http://www.w3.org/1999/xlink">
    <style>
        #frame-9536 {
        -webkit-transform: translate(0%, 0%);
        -ms-transform: translate(0%, 0%);
        transform: translate(0%, 0%);
        }
        #frame-9536.portrait {
        -webkit-transform: rotate(90deg) scale(-1, 1) translate(-0%, -0%);
        -ms-transform: rotate(90deg) scale(-1, 1) translate(-0%, -0%);
        transform: rotate(90deg) scale(-1, 1) translate(-0%, -0%);
        }
    </style>
    <g id="Page-1" stroke="none" stroke-width="1" fill="none" fill-rule="evenodd">
        <g id="Box-Frame-Studio-Masks-cut-edited-simplified">
            <polygon id="innerFrame_3" fill="#111111" fill-rule="nonzero" points="1979 109 1979 1998 1934 1998 1934 109"></polygon>
            <polygon id="innerFrame_2" fill="#111111" fill-rule="nonzero" points="1934 64.0061355 1934 109 1933.83427 109 1933.83427 108.993864 45 108.993864 45.1654973 108.993864 45 108.993864 45 64"></polygon>
            <polygon id="innerFrame_1" fill="#000000" fill-rule="nonzero" points="45 109 45 1998 0 1998 0 109"></polygon>
            <polygon id="innerFrame_0" fill="#111111" fill-rule="nonzero" points="1933.83499 1998 1933.83499 2043 45 2043 45 1998 45.1649943 1998 45.1650108 1998.01047 1934 1998.01047 1934 1998"></polygon>
            <polygon id="corner_3" fill="#111111" points="1934 1998 1979 1998 1979 2043 1934 2043"></polygon>
            <polygon id="corner_2" fill="#111111" points="1934 64 1979 64 1979 109 1934 109"></polygon>
            <polygon id="corner_1" fill="#000000" points="0 64 45 64 45 109 0 109"></polygon>
            <polygon id="corner_0" fill="#000000" points="0 1998 45 1998 45 2043 0 2043"></polygon>
            <polygon id="depthFrame_1" fill="#000000" fill-rule="nonzero" points="2043 64 1979 65.0893432 1979 1979 2043 1979"></polygon>
            <polygon id="depthFrame_0" fill="#4A4A49" fill-rule="nonzero" points="64 0 64 64 1979 64 1979 0"></polygon>
            <polygon id="tri_3" fill="#000000" fill-rule="nonzero" points="2043 1979 1979 1979 1979 2043 1979.0044 2043"></polygon>
            <polygon id="tri_2" fill="#000000" fill-rule="nonzero" points="2043 64 1979 64 2043 0"></polygon>
            <polygon id="tri_1" fill="#4A4A49" fill-rule="nonzero" points="1979 0 1979 64 2043 0"></polygon>
            <polygon id="tri_0" fill="#4A4A49" fill-rule="nonzero" points="0 64 64 64 64 0"></polygon>
        </g>
    </g>
</svg>