
<svg id="frame-9536" viewBox="0 0 1665 1665" version="1.1" xmlns="http://www.w3.org/2000/svg" xmlns:xlink="http://www.w3.org/1999/xlink">
    <style>
        #frame-9536 {
        -webkit-transform: translate(0%, 0%);
        -ms-transform: translate(0%, 0%);
        transform: translate(0%, 0%);
        }
        #frame-9536.portrait {
        -webkit-transform: rotate(90deg) scale(-1, 1) translate(-0%, -0%);
        -ms-transform: rotate(90deg) scale(-1, 1) translate(-0%, -0%);
        transform: rotate(90deg) scale(-1, 1) translate(-0%, -0%);
        }
    </style>
    <g id="Page-1" stroke="none" stroke-width="1" fill="none" fill-rule="evenodd">
        <g id="Box-Frame-Studio-Masks-cut-edited-simplified">
            <polygon id="innerFrame_3" fill="#111111" fill-rule="nonzero" points="1601 109 1601 1620 1556 1620 1556 109"></polygon>
            <polygon id="innerFrame_2" fill="#111111" fill-rule="nonzero" points="1556 64.0061355 1556 109 1555.86743 109 1555.86743 108.993864 45 108.993864 45.1323803 108.993864 45 108.993864 45 64"></polygon>
            <polygon id="innerFrame_1" fill="#000000" fill-rule="nonzero" points="45 109 45 1620 0 1620 0 109"></polygon>
            <polygon id="innerFrame_0" fill="#111111" fill-rule="nonzero" points="1555.86801 1620 1555.86801 1665 45 1665 45 1620 45.1319779 1620 45.1319912 1620.01047 1556 1620.01047 1556 1620"></polygon>
            <polygon id="corner_3" fill="#111111" points="1556 1620 1601 1620 1601 1665 1556 1665"></polygon>
            <polygon id="corner_2" fill="#111111" points="1556 64 1601 64 1601 109 1556 109"></polygon>
            <polygon id="corner_1" fill="#000000" points="0 64 45 64 45 109 0 109"></polygon>
            <polygon id="corner_0" fill="#000000" points="0 1620 45 1620 45 1665 0 1665"></polygon>
            <polygon id="depthFrame_1" fill="#000000" fill-rule="nonzero" points="1665 64 1601 64.8743188 1601 1601 1665 1601"></polygon>
            <polygon id="depthFrame_0" fill="#4A4A49" fill-rule="nonzero" points="64 0 64 64 1601 64 1601 0"></polygon>
            <polygon id="tri_3" fill="#000000" fill-rule="nonzero" points="1665 1601 1601 1601 1601 1665 1601.0044 1665"></polygon>
            <polygon id="tri_2" fill="#000000" fill-rule="nonzero" points="1665 64 1601 64 1665 0"></polygon>
            <polygon id="tri_1" fill="#4A4A49" fill-rule="nonzero" points="1601 0 1601 64 1665 0"></polygon>
            <polygon id="tri_0" fill="#4A4A49" fill-rule="nonzero" points="0 64 64 64 64 0"></polygon>
        </g>
    </g>
</svg>