<?xml version="1.0" encoding="UTF-8"?>
<svg id="frame-9536" viewBox="0 0 3555 3555" version="1.1" xmlns="http://www.w3.org/2000/svg" xmlns:xlink="http://www.w3.org/1999/xlink">
    <style>
        #frame-9536 {
        -webkit-transform: translate(0%, 0%);
        -ms-transform: translate(0%, 0%);
        transform: translate(0%, 0%);
        }
        #frame-9536.portrait {
        -webkit-transform: rotate(90deg) scale(-1, 1) translate(-0%, -0%);
        -ms-transform: rotate(90deg) scale(-1, 1) translate(-0%, -0%);
        transform: rotate(90deg) scale(-1, 1) translate(-0%, -0%);
        }
    </style>
    <!-- Generator: Sketch 61 (89581) - https://sketch.com -->
    <title>Box Frame Studio Masks-cut-edited-simplified</title>
    <desc>Created with Sketch.</desc>
    <g id="Page-1" stroke="none" stroke-width="1" fill="none" fill-rule="evenodd">
        <g id="Box-Frame-Studio-Masks-cut-edited-simplified">
            <polygon id="innerFrame_3" fill="#111111" fill-rule="nonzero" points="3491 109 3491 3510 3446 3510 3446 109"></polygon>
            <polygon id="innerFrame_2" fill="#111111" fill-rule="nonzero" points="3446 64.0061355 3446 109 3445.70165 109 3445.70165 108.993864 45 108.993864 45.2979662 108.993864 45 108.993864 45 64"></polygon>
            <polygon id="innerFrame_1" fill="#000000" fill-rule="nonzero" points="46 109 46 3510 1 3510 1 109"></polygon>
            <polygon id="innerFrame_0" fill="#111111" fill-rule="nonzero" points="3445.70291 3510 3445.70291 3555 45 3555 45 3510 45.2970595 3510 45.2970893 3510.01047 3446 3510.01047 3446 3510"></polygon>
            <polygon id="corner_3" fill="#111111" points="3446 3510 3491 3510 3491 3555 3446 3555"></polygon>
            <polygon id="corner_2" fill="#111111" points="3446 64 3491 64 3491 109 3446 109"></polygon>
            <polygon id="corner_1" fill="#000000" points="1 64 46 64 46 109 1 109"></polygon>
            <polygon id="corner_0" fill="#000000" points="1 3510 46 3510 46 3555 1 3555"></polygon>
            <polygon id="depthFrame_1" fill="#000000" fill-rule="nonzero" points="3555 64 3491 65.9494417 3491 3491 3555 3491"></polygon>
            <polygon id="depthFrame_0" fill="#4A4A49" fill-rule="nonzero" points="64 1 64 65 3491 65 3491 1"></polygon>
            <polygon id="tri_3" fill="#000000" fill-rule="nonzero" points="3555 3491 3491 3491 3491 3555 3491.0044 3555"></polygon>
            <polygon id="tri_2" fill="#000000" fill-rule="nonzero" points="3555 64 3491 64 3555 0"></polygon>
            <polygon id="tri_1" fill="#4A4A49" fill-rule="nonzero" points="3491 1 3491 65 3555 1"></polygon>
            <polygon id="tri_0" fill="#4A4A49" fill-rule="nonzero" points="0 65.2 64 65.2 64 1.2"></polygon>
        </g>
    </g>
</svg>
