
<svg id="frame-9536" viewBox="0 0 4689 3177" version="1.1" xmlns="http://www.w3.org/2000/svg" xmlns:xlink="http://www.w3.org/1999/xlink">
    <style>
        #frame-9536 {
        -webkit-transform: translate(0%, 0%);
        -ms-transform: translate(0%, 0%);
        transform: translate(0%, 0%);
        }
        #frame-9536.portrait {
        -webkit-transform: rotate(90deg) scale(-1, 1) translate(-0%, -0%);
        -ms-transform: rotate(90deg) scale(-1, 1) translate(-0%, -0%);
        transform: rotate(90deg) scale(-1, 1) translate(-0%, -0%);
        }
    </style>
    <g id="Page-1" stroke="none" stroke-width="1" fill="none" fill-rule="evenodd">
        <g id="Box-Frame-Studio-Masks-cut-edited-simplified">
            <polygon id="innerFrame_3" fill="#111111" fill-rule="nonzero" points="4625 109 4625 3132 4580 3132 4580 109"></polygon>
            <polygon id="innerFrame_2" fill="#111111" fill-rule="nonzero" points="4580 64.0061355 4580 109 4579.60213 109 4579.60213 108.993864 45 108.993864 45.3973161 108.993864 45 108.993864 45 64"></polygon>
            <polygon id="innerFrame_1" fill="#000000" fill-rule="nonzero" points="45 109 45 3132 0 3132 0 109"></polygon>
            <polygon id="innerFrame_0" fill="#111111" fill-rule="nonzero" points="4579.60386 3132 4579.60386 3177 45 3177 45 3132 45.3961085 3132 45.3961482 3132.01047 4580 3132.01047 4580 3132"></polygon>
            <polygon id="corner_3" fill="#111111" points="4580 3132 4625 3132 4625 3177 4580 3177"></polygon>
            <polygon id="corner_2" fill="#111111" points="4580 64 4625 64 4625 109 4580 109"></polygon>
            <polygon id="corner_1" fill="#000000" points="0 64 45 64 45 109 0 109"></polygon>
            <polygon id="corner_0" fill="#000000" points="0 3132 45 3132 45 3177 0 3177"></polygon>
            <polygon id="depthFrame_1" fill="#000000" fill-rule="nonzero" points="4689 64 4625 65.7344164 4625 3113 4689 3113"></polygon>
            <polygon id="depthFrame_0" fill="#4A4A49" fill-rule="nonzero" points="64 0 64 64 4625 64 4625 0"></polygon>
            <polygon id="tri_3" fill="#000000" fill-rule="nonzero" points="4689 3113 4625 3113 4625 3177 4625.0044 3177"></polygon>
            <polygon id="tri_2" fill="#000000" fill-rule="nonzero" points="4689 64 4625 64 4689 0"></polygon>
            <polygon id="tri_1" fill="#4A4A49" fill-rule="nonzero" points="4625 0 4625 64 4689 0"></polygon>
            <polygon id="tri_0" fill="#4A4A49" fill-rule="nonzero" points="0 64 64 64 64 0"></polygon>
        </g>
    </g>
</svg>