<svg id="frame-9536" viewBox="0 0 2799 4122" version="1.1" xmlns="http://www.w3.org/2000/svg" xmlns:xlink="http://www.w3.org/1999/xlink">
    <style>
        #frame-9536 {
        -webkit-transform: translate(0%, 0%);
        -ms-transform: translate(0%, 0%);
        transform: translate(0%, 0%);
        }
        #frame-9536.portrait {
        -webkit-transform: rotate(90deg) scale(-1, 1) translate(-0%, -0%);
        -ms-transform: rotate(90deg) scale(-1, 1) translate(-0%, -0%);
        transform: rotate(90deg) scale(-1, 1) translate(-0%, -0%);
        }
    </style>
    <!-- Generator: Sketch 61 (89581) - https://sketch.com -->
    <title>Box Frame Studio Masks-cut-edited-simplified</title>
    <desc>Created with Sketch.</desc>
    <g id="Page-1" stroke="none" stroke-width="1" fill="none" fill-rule="evenodd">
        <g id="Box-Frame-Studio-Masks-cut-edited-simplified">
            <polygon id="innerFrame_3" fill="#111111" fill-rule="nonzero" points="2735 109 2735 4077 2690 4077 2690 109"></polygon>
            <polygon id="innerFrame_2" fill="#111111" fill-rule="nonzero" points="2690 64.0061355 2690 109 2689.76797 109 2689.76797 108.993864 45 108.993864 45.2317321 108.993864 45 108.993864 45 64"></polygon>
            <polygon id="innerFrame_1" fill="#000000" fill-rule="nonzero" points="46 109 46 4077 1 4077 1 109"></polygon>
            <polygon id="innerFrame_0" fill="#111111" fill-rule="nonzero" points="2689.76895 4077 2689.76895 4122 45 4122 45 4077 45.2310269 4077 45.23105 4077.01047 2690 4077.01047 2690 4077"></polygon>
            <polygon id="corner_3" fill="#111111" points="2690 4077 2735 4077 2735 4122 2690 4122"></polygon>
            <polygon id="corner_2" fill="#111111" points="2690 64 2735 64 2735 109 2690 109"></polygon>
            <polygon id="corner_1" fill="#000000" points="1 64 46 64 46 109 1 109"></polygon>
            <polygon id="corner_0" fill="#000000" points="1 4077 46 4077 46 4122 1 4122"></polygon>
            <polygon id="depthFrame_1" fill="#000000" fill-rule="nonzero" points="2799 64 2735 66.2719784 2735 4058 2799 4058"></polygon>
            <polygon id="depthFrame_0" fill="#4A4A49" fill-rule="nonzero" points="64 1 64 65 2735 65 2735 1"></polygon>
            <polygon id="tri_3" fill="#000000" fill-rule="nonzero" points="2799 4058 2735 4058 2735 4122 2735.0044 4122"></polygon>
            <polygon id="tri_2" fill="#000000" fill-rule="nonzero" points="2799 64 2735 64 2799 0"></polygon>
            <polygon id="tri_1" fill="#4A4A49" fill-rule="nonzero" points="2735 1 2735 65 2799 1"></polygon>
            <polygon id="tri_0" fill="#4A4A49" fill-rule="nonzero" points="0 65.2 64 65.2 64 1.2"></polygon>
        </g>
    </g>
</svg>
