<?xml version="1.0" encoding="UTF-8"?>
<svg width="3555px" height="4689px" viewBox="0 0 3555 4689" version="1.1" xmlns="http://www.w3.org/2000/svg" xmlns:xlink="http://www.w3.org/1999/xlink">
    <!-- Generator: Sketch 61.2 (89653) - https://sketch.com -->
    <title>Box Frame Studio Masks-cut-edited-simplified</title>
    <desc>Created with Sketch.</desc>
    <g id="Page-1" stroke="none" stroke-width="1" fill="none" fill-rule="evenodd">
        <g id="Box-Frame-Studio-Masks-cut-edited-simplified">
            <polygon id="innerFrame_3" fill="#111111" fill-rule="nonzero" points="3491 109 3491 4644 3446 4644 3446 109"></polygon>
            <polygon id="innerFrame_2" fill="#111111" fill-rule="nonzero" points="3446 64.0061355 3446 109 3445.70165 109 3445.70165 108.993864 45 108.993864 45.2979662 108.993864 45 108.993864 45 64"></polygon>
            <polygon id="innerFrame_1" fill="#000000" fill-rule="nonzero" points="46 109 46 4644 1 4644 1 109"></polygon>
            <polygon id="innerFrame_0" fill="#111111" fill-rule="nonzero" points="3445.70291 4644 3445.70291 4689 45 4689 45 4644 45.2970595 4644 45.2970893 4644.01047 3446 4644.01047 3446 4644"></polygon>
            <polygon id="corner_3" fill="#111111" points="3446 4644 3491 4644 3491 4689 3446 4689"></polygon>
            <polygon id="corner_2" fill="#111111" points="3446 64 3491 64 3491 109 3446 109"></polygon>
            <polygon id="corner_1" fill="#000000" points="1 64 46 64 46 109 1 109"></polygon>
            <polygon id="corner_0" fill="#000000" points="1 4644 46 4644 46 4689 1 4689"></polygon>
            <polygon id="depthFrame_1" fill="#000000" fill-rule="nonzero" points="3555 64 3491 66.5945152 3491 4625 3555 4625"></polygon>
            <polygon id="depthFrame_0" fill="#4A4A49" fill-rule="nonzero" points="64 1 64 65 3491 65 3491 1"></polygon>
            <polygon id="tri_3" fill="#000000" fill-rule="nonzero" points="3555 4625 3491 4625 3491 4689 3491.0044 4689"></polygon>
            <polygon id="tri_2" fill="#000000" fill-rule="nonzero" points="3555 64 3491 64 3555 0"></polygon>
            <polygon id="tri_1" fill="#4A4A49" fill-rule="nonzero" points="3491 1 3491 65 3555 1"></polygon>
            <polygon id="tri_0" fill="#4A4A49" fill-rule="nonzero" points="0 65.2 64 65.2 64 1.2"></polygon>
        </g>
    </g>
</svg>
